# xmcd CD database file
#
# Track frame offsets:
#	150
#	29317
#	59027
#	78117
#	100634
#	117727
#	145170
#	175982
#	194377
#	218888
#	243302
#
# Disc length: 3775 seconds
#
# Revision: 0
# Processed by: cddbd v1.5.1PL0 Copyright (c) Steve Scherf et al.
# Submitted via: CDex 1.51
#
DISCID=9b0ebd0b
DTITLE=Patricia Spero - Peru
DYEAR=1900
DGENRE=New Age
TTITLE0=Andean Chant
TTITLE1=Serenade
TTITLE2=Hymn To The Sun
TTITLE3=Mother Earth
TTITLE4=Peruvian Dance
TTITLE5=Moon And Stars
TTITLE6=Spirit Of The Incas
TTITLE7=Cuzco Carnival
TTITLE8=Rio Negro
TTITLE9=Evening Song
TTITLE10=Cloud Forest
EXTD=
EXTT0=
EXTT1=
EXTT2=
EXTT3=
EXTT4=
EXTT5=
EXTT6=
EXTT7=
EXTT8=
EXTT9=
EXTT10=
PLAYORDER=
